# 
# ?? Glue Home 3D ?? - ??? ?? 21 17:14:49 CST 2014
# http://www.sweethome3d.com/
# 
mtllib render.mtl
g wall_1_1
usemtl wall_1_1
v 1613.2009 0.0 669.75
v 1605.1957 0.0 677.875
v 1604.697 0.0 1445.75
v 1612.6918 0.0 1453.75
vn 0.0 -1.0 0.0
f 4//1 3//1 2//1
f 4//1 2//1 1//1
g wall_1_2
usemtl wall_1_1
v 1605.1957 280.0 677.875
v 1613.2009 280.0 669.75
v 1612.6918 280.0 1453.75
v 1604.697 280.0 1445.75
vn -0.7123367 0.0 -0.7018379
vn -0.7073388 0.0 0.7068747
vn 0.99999976 0.0 0.0006494
vn 0.0 0.0 0.0
f 1//2 2//2 5//2 6//2
f 3//3 4//3 7//3 8//3
f 4//4 1//4 6//4 7//4
g wall_1_3
usemtl wall_1_1
vn 0.0 1.0 0.0
f 6//6 5//6 8//6
f 6//6 8//6 7//6
g wall_1_4
usemtl b25166b3-6723-4b52-89ca-92e361c05a89
v 1597.1904 0.0 686.0
v 1596.7021 0.0 1437.75
f 3//1 10//1 9//1
f 3//1 9//1 2//1
g wall_1_5
usemtl b25166b3-6723-4b52-89ca-92e361c05a89
v 1597.1904 280.0 686.0
v 1596.7021 280.0 1437.75
vt 0.0 0.0 0
vt 0.5703062 0.0 0
vt 0.5703062 14.0 0
vt 0.0 14.0 0
vt 37.58751 0.0 0
vt 37.58751 14.0 0
vt 0.5655042 0.0 0
vt 0.5655042 14.0 0
vn -0.99999976 0.0 -0.0006495
vn -0.70733345 0.0 0.7068801
f 2/1/2 9/2/2 11/3/2 5/4/2
f 9/1/7 10/5/7 12/6/7 11/4/7
f 10/1/8 3/7/8 8/8/8 12/4/8
g wall_1_6
usemtl b25166b3-6723-4b52-89ca-92e361c05a89
f 5//6 11//6 12//6
f 5//6 12//6 8//6
g wall_2_7
usemtl wall_1_1
v 1604.697 0.0 1445.859
v 553.03595 0.0 1448.5275
v 545.03595 0.0 1456.5479
v 1612.6918 0.0 1453.8387
f 16//1 15//1 14//1
f 16//1 14//1 13//1
g wall_2_8
usemtl wall_1_1
v 545.03595 280.0 1456.5479
v 553.03595 280.0 1448.5275
v 1612.6918 280.0 1453.8387
v 1604.697 280.0 1445.859
vn -0.70800596 0.0 -0.7062064
vn 0.002537426 0.0 0.9999968
vn 0.7064418 0.0 -0.70777106
f 14//9 15//9 17//9 18//9
f 15//10 16//10 19//10 17//10
f 16//11 13//11 20//11 19//11
g wall_2_9
usemtl wall_1_1
f 20//6 18//6 17//6
f 20//6 17//6 19//6
g wall_2_10
usemtl b25166b3-6723-4b52-89ca-92e361c05a89
v 1596.7021 0.0 1437.8793
v 561.03595 0.0 1440.5071
f 13//1 14//1 22//1
f 13//1 22//1 21//1
g wall_2_11
usemtl b25166b3-6723-4b52-89ca-92e361c05a89
v 561.03595 280.0 1440.5071
v 1596.7021 280.0 1437.8793
vt 51.783478 0.0 0
vt 51.783478 14.0 0
vt 0.5664066 0.0 0
vt 0.5664066 14.0 0
vt 0.564788 0.0 0
vt 0.564788 14.0 0
vn -0.0025373031 0.0 -0.9999968
vn 0.70643646 0.0 -0.7077765
f 21/1/12 22/9/12 23/10/12 24/4/12
f 22/1/9 14/11/9 18/12/9 23/4/9
f 13/1/13 21/13/13 24/14/13 20/4/13
g wall_2_12
usemtl b25166b3-6723-4b52-89ca-92e361c05a89
f 24//6 23//6 18//6
f 24//6 18//6 20//6
g wall_3_13
usemtl wall_1_1
v 548.2007 0.0 668.5128
v 545.03595 0.0 675.8602
v 554.3702 0.0 679.88074
v 556.0125 0.0 671.87756
f 28//1 27//1 26//1
f 28//1 26//1 25//1
g wall_3_14
usemtl wall_1_1
v 545.03595 280.0 675.8602
v 548.2007 280.0 668.5128
v 556.0125 280.0 671.87756
v 554.3702 280.0 679.88074
vn -0.91842645 0.0 -0.3955917
vn 0.97958684 0.0 0.20102134
vn 0.39558926 0.0 -0.9184275
f 25//14 26//14 29//14 30//14
f 27//15 28//15 31//15 32//15
f 28//16 25//16 30//16 31//16
g wall_3_15
usemtl wall_1_1
f 30//6 29//6 32//6
f 30//6 32//6 31//6
g wall_3_16
usemtl wall_1_1
v 541.8712 0.0 683.20764
v 552.72784 0.0 687.8839
f 27//1 34//1 33//1
f 27//1 33//1 26//1
g wall_3_17
usemtl wall_1_1
v 541.8712 280.0 683.20764
v 552.72784 280.0 687.8839
vn -0.39559308 0.0 0.91842586
f 26//14 33//14 35//14 29//14
f 33//17 34//17 36//17 35//17
f 34//15 27//15 32//15 36//15
g wall_3_18
usemtl wall_1_1
f 29//6 35//6 36//6
f 29//6 36//6 32//6
g wall_4_19
usemtl wall_1_1
v 1613.2009 0.0 669.8644
v 1605.1957 0.0 677.87964
f 38//1 27//1 28//1
f 38//1 28//1 37//1
g wall_4_20
usemtl wall_1_1
v 1613.2009 280.0 669.8644
v 1605.1957 280.0 677.87964
vn -0.0019042772 0.0 -0.9999982
vn -0.97958684 0.0 -0.20102134
vn 0.70754844 0.0 0.70666486
f 37//18 28//18 31//18 39//18
f 28//19 27//19 32//19 31//19
f 38//20 37//20 39//20 40//20
g wall_4_21
usemtl wall_1_1
f 39//6 31//6 32//6
f 39//6 32//6 40//6
g wall_4_22
usemtl b25166b3-6723-4b52-89ca-92e361c05a89
v 1597.1904 0.0 685.8949
f 41//1 34//1 27//1
f 41//1 27//1 38//1
g wall_4_23
usemtl b25166b3-6723-4b52-89ca-92e361c05a89
v 1597.1904 280.0 685.8949
vt 0.40849742 0.0 0
vt 0.40849742 14.0 0
vt 52.223225 0.0 0
vt 52.223225 14.0 0
vt 0.5664106 0.0 0
vt 0.5664106 14.0 0
vn 0.0019043382 0.0 0.9999982
f 27/1/19 34/15/19 36/16/19 32/4/19
f 34/1/21 41/17/21 42/18/21 36/4/21
f 41/1/20 38/19/20 40/20/20 42/4/20
g wall_4_24
usemtl b25166b3-6723-4b52-89ca-92e361c05a89
f 40//6 32//6 36//6
f 40//6 36//6 42//6
g wall_5_25
usemtl wall_1_1
v 553.03595 0.0 1686.9382
v 553.03595 0.0 1694.9382
v 1605.3641 0.0 1694.9382
v 1613.3641 0.0 1686.9382
f 46//1 45//1 44//1
f 46//1 44//1 43//1
g wall_5_26
usemtl wall_1_1
v 553.03595 280.0 1694.9382
v 553.03595 280.0 1686.9382
v 1613.3641 280.0 1686.9382
v 1605.3641 280.0 1694.9382
vn -1.0 0.0 0.0
vn 0.70710677 0.0 0.70710677
vn 0.0 0.0 -1.0
f 43//22 44//22 47//22 48//22
f 45//23 46//23 49//23 50//23
f 46//24 43//24 48//24 49//24
g wall_5_27
usemtl wall_1_1
f 48//6 47//6 50//6
f 48//6 50//6 49//6
g wall_5_28
usemtl 5d1df0a3-c8d5-48d2-8a45-69f8ec236e3e
v 553.03595 0.0 1702.9382
v 1597.3641 0.0 1702.9382
f 45//1 52//1 51//1
f 45//1 51//1 44//1
g wall_5_29
usemtl 5d1df0a3-c8d5-48d2-8a45-69f8ec236e3e
v 553.03595 280.0 1702.9382
v 1597.3641 280.0 1702.9382
vt 0.4 0.0 0
vt 0.4 14.0 0
vt 52.216408 0.0 0
vt 52.216408 14.0 0
vt 0.5656854 0.0 0
vt 0.5656854 14.0 0
vn 0.0 0.0 1.0
f 44/1/22 51/21/22 53/22/22 47/4/22
f 51/1/25 52/23/25 54/24/25 53/4/25
f 52/1/23 45/25/23 50/26/23 54/4/23
g wall_5_30
usemtl 5d1df0a3-c8d5-48d2-8a45-69f8ec236e3e
f 47//6 53//6 54//6
f 47//6 54//6 50//6
g wall_6_31
usemtl wall_1_1
v 1605.3641 0.0 2484.9385
v 1613.3641 0.0 2492.9385
f 56//1 55//1 45//1
f 56//1 45//1 46//1
g wall_6_32
usemtl wall_1_1
v 1613.3641 280.0 2492.9385
v 1605.3641 280.0 2484.9385
vn -0.70710677 0.0 -0.70710677
vn -0.70710677 0.0 0.70710677
vn 1.0 0.0 0.0
f 46//26 45//26 50//26 49//26
f 55//27 56//27 57//27 58//27
f 56//28 46//28 49//28 57//28
g wall_6_33
usemtl wall_1_1
f 49//6 50//6 58//6
f 49//6 58//6 57//6
g wall_6_34
usemtl 5d1df0a3-c8d5-48d2-8a45-69f8ec236e3e
v 1597.3641 0.0 2476.9385
f 55//1 59//1 52//1
f 55//1 52//1 45//1
g wall_6_35
usemtl 5d1df0a3-c8d5-48d2-8a45-69f8ec236e3e
v 1597.3641 280.0 2476.9385
vt 38.700012 0.0 0
vt 38.700012 14.0 0
f 45/1/26 52/25/26 54/26/26 50/4/26
f 52/1/22 59/27/22 60/28/22 54/4/22
f 59/1/27 55/25/27 58/26/27 60/4/27
g wall_6_36
usemtl 5d1df0a3-c8d5-48d2-8a45-69f8ec236e3e
f 50//6 54//6 60//6
f 50//6 60//6 58//6
g wall_7_37
usemtl wall_1_1
v 553.03595 0.0 2484.9385
v 545.03595 0.0 2492.9385
f 55//1 56//1 62//1
f 55//1 62//1 61//1
g wall_7_38
usemtl wall_1_1
v 545.03595 280.0 2492.9385
v 553.03595 280.0 2484.9385
vn 0.70710677 0.0 -0.70710677
f 61//26 62//26 63//26 64//26
f 62//25 56//25 57//25 63//25
f 56//29 55//29 58//29 57//29
g wall_7_39
usemtl wall_1_1
f 64//6 63//6 57//6
f 64//6 57//6 58//6
g wall_7_40
usemtl 5d1df0a3-c8d5-48d2-8a45-69f8ec236e3e
v 561.03595 0.0 2476.9385
f 59//1 55//1 61//1
f 59//1 61//1 65//1
g wall_7_41
usemtl 5d1df0a3-c8d5-48d2-8a45-69f8ec236e3e
v 561.03595 280.0 2476.9385
vt 51.816406 0.0 0
vt 51.816406 14.0 0
f 65/1/26 61/25/26 64/26/26 66/4/26
f 55/1/29 59/25/29 60/26/29 58/4/29
f 59/1/24 65/29/24 66/30/24 60/4/24
g wall_7_42
usemtl 5d1df0a3-c8d5-48d2-8a45-69f8ec236e3e
f 66//6 64//6 58//6
f 66//6 58//6 60//6
g wall_8_43
usemtl wall_1_1
v 545.0359 0.0 1694.9382
v 553.0359 0.0 1694.9382
f 68//1 61//1 62//1
f 68//1 62//1 67//1
g wall_8_44
usemtl wall_1_1
v 545.0359 280.0 1694.9382
v 553.0359 280.0 1694.9382
vn -1.0 0.0 0.0000001
f 67//30 62//30 63//30 69//30
f 62//23 61//23 64//23 63//23
f 68//24 67//24 69//24 70//24
g wall_8_45
usemtl wall_1_1
f 69//6 63//6 64//6
f 69//6 64//6 70//6
g wall_8_46
usemtl 5d1df0a3-c8d5-48d2-8a45-69f8ec236e3e
v 561.0359 0.0 1694.9382
f 71//1 65//1 61//1
f 71//1 61//1 68//1
g wall_8_47
usemtl 5d1df0a3-c8d5-48d2-8a45-69f8ec236e3e
v 561.0359 280.0 1694.9382
vt 39.100014 0.0 0
vt 39.100014 14.0 0
vn 1.0 0.0 -0.0000001
f 61/1/23 65/25/23 66/26/23 64/4/23
f 65/1/31 71/31/31 72/32/31 66/4/31
f 71/1/24 68/21/24 70/22/24 72/4/24
g wall_8_48
usemtl 5d1df0a3-c8d5-48d2-8a45-69f8ec236e3e
f 70//6 64//6 66//6
f 70//6 66//6 72//6
g wall_9_49
usemtl 42651dcf-0fca-44c5-8d43-a179a89c0103
v 1692.7314 0.0 1439.8604
v 1692.7314 0.0 1447.8604
v 2757.4578 0.0 1447.8604
v 2749.4578 0.0 1439.8604
f 76//1 75//1 74//1
f 76//1 74//1 73//1
g wall_9_50
usemtl 42651dcf-0fca-44c5-8d43-a179a89c0103
v 1692.7314 280.0 1447.8604
v 1692.7314 280.0 1439.8604
v 2749.4578 280.0 1439.8604
v 2757.4578 280.0 1447.8604
vt 0.1509434 0.0 0
vt 0.1509434 2.8 0
vt 0.0 2.8 0
vt 0.2134662 0.0 0
vt 0.2134662 2.8 0
vt -19.938232 0.0 0
vt -19.938232 2.8 0
f 73/1/22 74/33/22 77/34/22 78/35/22
f 75/1/29 76/36/29 79/37/29 80/35/29
f 76/38/24 73/1/24 78/35/24 79/39/24
g wall_9_51
usemtl 42651dcf-0fca-44c5-8d43-a179a89c0103
f 78//6 77//6 80//6
f 78//6 80//6 79//6
g wall_9_52
usemtl wall_1_1
v 1692.7314 0.0 1455.8604
v 2765.4578 0.0 1455.8604
f 75//1 82//1 81//1
f 75//1 81//1 74//1
g wall_9_53
usemtl wall_1_1
v 1692.7314 280.0 1455.8604
v 2765.4578 280.0 1455.8604
f 74//22 81//22 83//22 77//22
f 81//25 82//25 84//25 83//25
f 82//29 75//29 80//29 84//29
g wall_9_54
usemtl wall_1_1
f 77//6 83//6 84//6
f 77//6 84//6 80//6
g wall_10_55
usemtl 42651dcf-0fca-44c5-8d43-a179a89c0103
v 2757.4578 0.0 675.87805
v 2749.4578 0.0 683.8856
f 75//1 76//1 86//1
f 75//1 86//1 85//1
g wall_10_56
usemtl 42651dcf-0fca-44c5-8d43-a179a89c0103
v 2749.4578 280.0 683.8856
v 2757.4578 280.0 675.87805
vt 0.2135672 0.0 0
vt 0.2135672 2.8 0
vt -14.263674 0.0 0
vt -14.263674 2.8 0
vn -0.70744103 0.0 -0.7067724
f 85/1/32 86/40/32 87/41/32 88/35/32
f 86/42/22 76/1/22 79/35/22 87/43/22
f 76/1/27 75/36/27 80/37/27 79/35/27
g wall_10_57
usemtl 42651dcf-0fca-44c5-8d43-a179a89c0103
f 88//6 87//6 79//6
f 88//6 79//6 80//6
g wall_10_58
usemtl wall_1_1
v 2765.4578 0.0 667.8705
f 82//1 75//1 85//1
f 82//1 85//1 89//1
g wall_10_59
usemtl wall_1_1
v 2765.4578 280.0 667.8705
f 89//32 85//32 88//32 90//32
f 75//27 82//27 84//27 80//27
f 82//28 89//28 90//28 84//28
g wall_10_60
usemtl wall_1_1
f 90//6 88//6 80//6
f 90//6 80//6 84//6
g wall_11_61
usemtl 42651dcf-0fca-44c5-8d43-a179a89c0103
v 1692.7314 0.0 676.8838
v 1700.7314 0.0 684.8762
f 86//1 92//1 91//1
f 86//1 91//1 85//1
g wall_11_62
usemtl 42651dcf-0fca-44c5-8d43-a179a89c0103
v 1700.7314 280.0 684.8762
v 1692.7314 280.0 676.8838
vt 0.21336524 0.0 0
vt 0.21336524 2.8 0
vt 19.787298 0.0 0
vt 19.787298 2.8 0
vn -0.7067721 0.0 0.70744133
vn 0.0009446 0.0 0.9999996
vn 0.70744103 0.0 0.7067724
f 91/1/33 92/44/33 93/45/33 94/35/33
f 92/1/34 86/46/34 87/47/34 93/35/34
f 86/1/35 85/40/35 88/41/35 87/35/35
g wall_11_63
usemtl 42651dcf-0fca-44c5-8d43-a179a89c0103
f 88//6 94//6 93//6
f 88//6 93//6 87//6
g wall_11_64
usemtl wall_1_1
v 1684.7314 0.0 668.8913
f 85//1 91//1 95//1
f 85//1 95//1 89//1
g wall_11_65
usemtl wall_1_1
v 1684.7314 280.0 668.8913
vn -0.0009446 0.0 -0.9999996
vn -0.7067748 0.0 0.70743865
f 89//36 95//36 96//36 90//36
f 95//37 91//37 94//37 96//37
f 85//35 89//35 90//35 88//35
g wall_11_66
usemtl wall_1_1
f 90//6 96//6 94//6
f 90//6 94//6 88//6
g wall_12_67
usemtl 42651dcf-0fca-44c5-8d43-a179a89c0103
v 1692.7314 0.0 1448.866
v 1700.7314 0.0 1448.866
f 92//1 98//1 97//1
f 92//1 97//1 91//1
g wall_12_68
usemtl 42651dcf-0fca-44c5-8d43-a179a89c0103
v 1700.7314 280.0 1448.866
v 1692.7314 280.0 1448.866
vt -14.414901 0.0 0
vt -14.414901 2.8 0
vn 0.7067721 0.0 -0.70744133
f 97/1/25 98/33/25 99/34/25 100/35/25
f 98/48/28 92/1/28 93/35/28 99/49/28
f 92/1/38 91/44/38 94/45/38 93/35/38
g wall_12_69
usemtl 42651dcf-0fca-44c5-8d43-a179a89c0103
f 94//6 100//6 99//6
f 94//6 99//6 93//6
g wall_12_70
usemtl wall_1_1
v 1684.7314 0.0 1448.866
f 91//1 97//1 101//1
f 91//1 101//1 95//1
g wall_12_71
usemtl wall_1_1
v 1684.7314 280.0 1448.866
vn 0.7067748 0.0 -0.70743865
f 95//22 101//22 102//22 96//22
f 101//25 97//25 100//25 102//25
f 91//39 95//39 96//39 94//39
g wall_12_72
usemtl wall_1_1
f 96//6 102//6 100//6
f 96//6 100//6 94//6
g wall_13_73
usemtl wall_1_1
v 1692.7314 0.0 1686.9382
v 1692.7314 0.0 1694.9382
v 2762.7314 0.0 1694.9382
v 2770.7314 0.0 1686.9382
f 106//1 105//1 104//1
f 106//1 104//1 103//1
g wall_13_74
usemtl wall_1_1
v 1692.7314 280.0 1694.9382
v 1692.7314 280.0 1686.9382
v 2770.7314 280.0 1686.9382
v 2762.7314 280.0 1694.9382
f 103//22 104//22 107//22 108//22
f 105//23 106//23 109//23 110//23
f 106//24 103//24 108//24 109//24
g wall_13_75
usemtl wall_1_1
f 108//6 107//6 110//6
f 108//6 110//6 109//6
g wall_13_76
usemtl 42651dcf-0fca-44c5-8d43-a179a89c0103
v 1692.7314 0.0 1702.9382
v 2754.7314 0.0 1702.9382
f 105//1 112//1 111//1
f 105//1 111//1 104//1
g wall_13_77
usemtl 42651dcf-0fca-44c5-8d43-a179a89c0103
v 1692.7314 280.0 1702.9382
v 2754.7314 280.0 1702.9382
vt 20.037735 0.0 0
vt 20.037735 2.8 0
f 104/1/22 111/33/22 113/34/22 107/35/22
f 111/1/25 112/50/25 114/51/25 113/35/25
f 112/1/23 105/36/23 110/37/23 114/35/23
g wall_13_78
usemtl 42651dcf-0fca-44c5-8d43-a179a89c0103
f 107//6 113//6 114//6
f 107//6 114//6 110//6
g wall_14_79
usemtl wall_1_1
v 2762.7314 0.0 2484.9382
v 2770.7314 0.0 2492.9382
f 116//1 115//1 105//1
f 116//1 105//1 106//1
g wall_14_80
usemtl wall_1_1
v 2770.7314 280.0 2492.9382
v 2762.7314 280.0 2484.9382
f 106//26 105//26 110//26 109//26
f 115//27 116//27 117//27 118//27
f 116//28 106//28 109//28 117//28
g wall_14_81
usemtl wall_1_1
f 109//6 110//6 118//6
f 109//6 118//6 117//6
g wall_14_82
usemtl 42651dcf-0fca-44c5-8d43-a179a89c0103
v 2754.7314 0.0 2476.9382
f 115//1 119//1 112//1
f 115//1 112//1 105//1
g wall_14_83
usemtl 42651dcf-0fca-44c5-8d43-a179a89c0103
v 2754.7314 280.0 2476.9382
vt 14.603773 0.0 0
vt 14.603773 2.8 0
f 105/1/26 112/36/26 114/37/26 110/35/26
f 112/1/22 119/52/22 120/53/22 114/35/22
f 119/1/27 115/36/27 118/37/27 120/35/27
g wall_14_84
usemtl 42651dcf-0fca-44c5-8d43-a179a89c0103
f 110//6 114//6 120//6
f 110//6 120//6 118//6
g wall_15_85
usemtl wall_1_1
v 1692.7314 0.0 2484.9382
v 1684.7314 0.0 2492.9382
f 115//1 116//1 122//1
f 115//1 122//1 121//1
g wall_15_86
usemtl wall_1_1
v 1684.7314 280.0 2492.9382
v 1692.7314 280.0 2484.9382
f 121//26 122//26 123//26 124//26
f 122//25 116//25 117//25 123//25
f 116//29 115//29 118//29 117//29
g wall_15_87
usemtl wall_1_1
f 124//6 123//6 117//6
f 124//6 117//6 118//6
g wall_15_88
usemtl 42651dcf-0fca-44c5-8d43-a179a89c0103
v 1700.7314 0.0 2476.9382
f 119//1 115//1 121//1
f 119//1 121//1 125//1
g wall_15_89
usemtl 42651dcf-0fca-44c5-8d43-a179a89c0103
v 1700.7314 280.0 2476.9382
vt 19.886793 0.0 0
vt 19.886793 2.8 0
f 125/1/26 121/36/26 124/37/26 126/35/26
f 115/1/29 119/36/29 120/37/29 118/35/29
f 119/1/24 125/54/24 126/55/24 120/35/24
g wall_15_90
usemtl 42651dcf-0fca-44c5-8d43-a179a89c0103
f 126//6 124//6 118//6
f 126//6 118//6 120//6
g wall_16_91
usemtl wall_1_1
v 1684.7314 0.0 1694.9382
f 104//1 121//1 122//1
f 104//1 122//1 127//1
g wall_16_92
usemtl wall_1_1
v 1684.7314 280.0 1694.9382
f 127//22 122//22 123//22 128//22
f 122//23 121//23 124//23 123//23
f 104//24 127//24 128//24 107//24
g wall_16_93
usemtl wall_1_1
f 128//6 123//6 124//6
f 128//6 124//6 107//6
g wall_16_94
usemtl 42651dcf-0fca-44c5-8d43-a179a89c0103
v 1700.7314 0.0 1694.9382
f 129//1 125//1 121//1
f 129//1 121//1 104//1
g wall_16_95
usemtl 42651dcf-0fca-44c5-8d43-a179a89c0103
v 1700.7314 280.0 1694.9382
vt 14.754717 0.0 0
vt 14.754717 2.8 0
f 121/1/23 125/36/23 126/37/23 124/35/23
f 125/1/28 129/56/28 130/57/28 126/35/28
f 129/1/24 104/33/24 107/34/24 130/35/24
g wall_16_96
usemtl 42651dcf-0fca-44c5-8d43-a179a89c0103
f 107//6 124//6 126//6
f 107//6 126//6 130//6
g wall_17_97
usemtl wall_1_1
v 545.03595 0.0 679.88324
v 553.03595 0.0 679.88324
f 132//1 14//1 15//1
f 132//1 15//1 131//1
g wall_17_98
usemtl wall_1_1
v 545.03595 280.0 679.88324
v 553.03595 280.0 679.88324
vn 0.70800596 0.0 0.7062064
f 131//22 15//22 17//22 133//22
f 15//40 14//40 18//40 17//40
f 132//24 131//24 133//24 134//24
g wall_17_99
usemtl wall_1_1
f 133//6 17//6 18//6
f 133//6 18//6 134//6
g wall_17_100
usemtl b25166b3-6723-4b52-89ca-92e361c05a89
v 561.03595 0.0 679.88324
f 135//1 22//1 14//1
f 135//1 14//1 132//1
g wall_17_101
usemtl b25166b3-6723-4b52-89ca-92e361c05a89
v 561.03595 280.0 679.88324
vt 38.031193 0.0 0
vt 38.031193 14.0 0
f 14/1/40 22/11/40 23/12/40 18/4/40
f 22/1/28 135/58/28 136/59/28 23/4/28
f 135/1/24 132/21/24 134/22/24 136/4/24
g wall_17_102
usemtl b25166b3-6723-4b52-89ca-92e361c05a89
f 134//6 18//6 23//6
f 134//6 23//6 136//6
g wall_18_103
usemtl wall_1_1
v 545.03595 0.0 670.8604
v 553.03595 0.0 670.8604
f 138//1 132//1 131//1
f 138//1 131//1 137//1
g wall_18_104
usemtl wall_1_1
v 545.03595 280.0 670.8604
v 553.03595 280.0 670.8604
f 137//22 131//22 133//22 139//22
f 131//25 132//25 134//25 133//25
f 138//24 137//24 139//24 140//24
g wall_18_105
usemtl wall_1_1
f 139//6 133//6 134//6
f 139//6 134//6 140//6
g wall_18_106
usemtl b25166b3-6723-4b52-89ca-92e361c05a89
v 561.03595 0.0 670.8604
f 141//1 135//1 132//1
f 141//1 132//1 138//1
g wall_18_107
usemtl b25166b3-6723-4b52-89ca-92e361c05a89
v 561.03595 280.0 670.8604
vt 0.45114136 0.0 0
vt 0.45114136 14.0 0
f 132/1/25 135/21/25 136/22/25 134/4/25
f 135/1/28 141/60/28 142/61/28 136/4/28
f 141/1/24 138/21/24 140/22/24 142/4/24
g wall_18_108
usemtl b25166b3-6723-4b52-89ca-92e361c05a89
f 140//6 134//6 136//6
f 140//6 136//6 142//6
g room_1_109
usemtl 58447ca7-d247-4aaf-bc6a-11028239169b
v 560.2004 0.0 682.2246
v 560.2004 0.0 1438.2073
v 1596.5286 0.0 1440.5276
v 1596.5286 0.0 684.5275
vt 33.951538 -5.63822 0
vt 33.951538 -11.88601 0
vt 96.75931 -11.905187 0
vt 96.75931 -5.6572523 0
f 143/62/6 144/63/6 145/64/6
f 143/62/6 145/64/6 146/65/6
g room_1_110
usemtl wall_1_1
v 1596.5286 280.0 684.5275
v 1596.5286 280.0 1440.5276
v 560.2004 280.0 1438.2073
v 560.2004 280.0 682.2246
f 147//1 148//1 149//1
f 147//1 149//1 150//1
g room_2_111
usemtl 498b6a40-ac88-4b38-9d24-ba3ea94f1479
v 561.0359 0.0 1702.9382
vt 34.002174 -14.050646 0
vt 34.00218 -20.436787 0
vt 96.809944 -20.436787 0
vt 96.809944 -14.050646 0
f 151/66/6 65/67/6 59/68/6
f 151/66/6 59/68/6 52/69/6
g room_2_112
usemtl wall_1_1
v 561.0359 280.0 1702.9382
f 54//1 60//1 66//1
f 54//1 66//1 152//1
g room_3_113
usemtl e93b0edd-4ed8-466c-b7b2-469dee822a55
v 2749.4578 0.0 683.87805
v 1700.7314 0.0 683.8782
v 1700.7314 0.0 1439.8604
vt 166.6338 -5.6518846 0
vt 103.07463 -5.6518855 0
vt 103.07463 -11.8996725 0
vt 166.6338 -11.8996725 0
f 153/70/6 154/71/6 155/72/6
f 153/70/6 155/72/6 76/73/6
g room_3_114
usemtl wall_1_1
v 1700.7314 280.0 1439.8604
v 1700.7314 280.0 683.8782
v 2749.4578 280.0 683.87805
f 79//1 156//1 157//1
f 79//1 157//1 158//1
g room_4_115
usemtl eac45138-38c4-4b23-ade7-eaec0816b7f7
v 1700.7314 0.0 1702.9382
vt 103.07463 -14.050646 0
vt 103.07463 -20.436785 0
vt 166.95341 -20.436785 0
vt 166.95341 -14.050646 0
f 159/74/6 125/75/6 119/76/6
f 159/74/6 119/76/6 112/77/6
g room_4_116
usemtl wall_1_1
v 1700.7314 280.0 1702.9382
f 114//1 120//1 126//1
f 114//1 126//1 160//1
